<svg width="270" height="266" viewBox="0 0 270 266" fill="none" xmlns="http://www.w3.org/2000/svg">
<path d="M181.003 117.84H167.022V250.64H181.003V117.84Z" fill="#263238" stroke="#263238" stroke-linecap="round" stroke-linejoin="round"/>
<path d="M70.1396 165.93V175.27H125.864V165.93H70.1396Z" fill="#263238" stroke="#263238" stroke-linecap="round" stroke-linejoin="round"/>
<path d="M50.5689 138.435L44.6023 144.927L69.218 171.669L75.1846 165.176L50.5689 138.435Z" fill="#263238" stroke="#263238" stroke-linecap="round" stroke-linejoin="round"/>
<path d="M77.7749 162.587C78.5151 163.391 79.1065 164.341 79.5153 165.383C79.9242 166.425 80.1424 167.538 80.1576 168.659C80.1728 169.78 79.9846 170.886 79.6039 171.915C79.2231 172.944 78.6572 173.875 77.9386 174.655C77.7597 174.85 77.5808 175.045 77.4083 175.232C76.3119 176.205 74.9822 176.824 73.5637 177.022C72.1453 177.22 70.6924 176.99 69.363 176.356C68.0337 175.723 66.8788 174.71 66.0239 173.428C65.169 172.146 64.6468 170.644 64.5142 169.086C64.3816 167.528 64.6435 165.972 65.2716 164.589C65.8997 163.206 66.8699 162.048 68.0766 161.241C69.2833 160.434 70.6804 160.009 72.116 160.011C73.5516 160.014 74.9707 160.445 76.219 161.258C76.7828 161.633 77.3052 162.079 77.7749 162.587Z" fill="white" stroke="#263238" stroke-linecap="round" stroke-linejoin="round"/>
<path d="M57.2504 139.415C58.7408 141.041 59.5949 143.224 59.6255 145.487C59.6562 147.749 58.861 149.905 57.4141 151.483C57.2352 151.678 57.0563 151.873 56.8775 152.067C55.7836 153.044 54.4554 153.667 53.0373 153.87C51.6192 154.072 50.1655 153.846 48.8344 153.217C47.5033 152.587 46.3457 151.577 45.4876 150.297C44.6294 149.018 44.1036 147.517 43.9673 145.959C43.831 144.4 44.0894 142.844 44.7145 141.458C45.3395 140.073 46.3073 138.912 47.5124 138.102C48.7176 137.291 50.114 136.863 51.5498 136.862C52.9856 136.862 54.4057 137.289 55.6558 138.099C56.2356 138.462 56.7717 138.904 57.2504 139.415Z" fill="white" stroke="#263238" stroke-linecap="round" stroke-linejoin="round"/>
<path d="M51.7594 112.158L48.2218 125.61L53.0244 127.245L56.562 113.793L51.7594 112.158Z" fill="#263238" stroke="#263238" stroke-linecap="round" stroke-linejoin="round"/>
<path d="M58.2234 112.731L56.4812 119.353L49.1883 116.876L50.9303 110.239C51.0641 109.715 51.2937 109.229 51.6058 108.809C51.9178 108.389 52.3058 108.043 52.7471 107.792C53.1884 107.542 53.674 107.391 54.1753 107.349C54.6766 107.308 55.1835 107.376 55.6662 107.55C56.6243 107.893 57.4302 108.63 57.909 109.6C58.3877 110.57 58.5007 111.695 58.2234 112.731Z" fill="white" stroke="#263238" stroke-linecap="round" stroke-linejoin="round"/>
<path d="M20.7505 109.348L37.1741 127.801L33.6461 131.511L17.2161 113.065L20.7505 109.348Z" fill="#263238" stroke="#263238" stroke-linecap="round" stroke-linejoin="round"/>
<path d="M20.6819 107.231L25.2225 112.317L19.8141 117.915L15.2735 112.83C14.9221 112.435 14.6435 111.972 14.4537 111.465C14.2639 110.959 14.1667 110.42 14.1675 109.879C14.1683 109.338 14.2672 108.806 14.4584 108.313C14.6497 107.82 14.9296 107.375 15.2822 107.005C15.6373 106.629 16.0599 106.337 16.5251 106.145C16.9904 105.953 17.4891 105.865 17.9919 105.886C18.4947 105.907 18.9917 106.037 19.4536 106.268C19.9154 106.499 20.333 106.826 20.6819 107.231Z" fill="white" stroke="#263238" stroke-linecap="round" stroke-linejoin="round"/>
<path d="M39.7914 101.806L46.9121 126.114L42.1661 127.626L35.039 103.325L39.7914 101.806Z" fill="#263238" stroke="#263238" stroke-linecap="round" stroke-linejoin="round"/>
<path d="M40.6145 99.9218L42.5766 106.596L35.3705 108.894L33.3954 102.22C33.0898 101.171 33.1747 100.046 33.6315 99.0904C34.0883 98.1344 34.88 97.4251 35.8336 97.1173C36.7909 96.8119 37.832 96.9357 38.7283 97.4615C39.6246 97.9872 40.3029 98.872 40.6145 99.9218Z" fill="white" stroke="#263238" stroke-linecap="round" stroke-linejoin="round"/>
<path d="M14.4284 129.262L36.7605 137.103L35.3609 142.264L13.0288 134.423L14.4284 129.262Z" fill="#263238" stroke="#263238" stroke-linecap="round" stroke-linejoin="round"/>
<path d="M32.23 133.195C31.4343 132.574 30.4941 132.219 29.5283 132.173C28.5625 132.128 27.6146 132.395 26.8044 132.94C25.9943 133.485 25.3584 134.285 24.9772 135.237C24.596 136.189 24.4866 137.251 24.6629 138.289C24.8392 139.326 25.2933 140.293 25.9676 141.066C26.642 141.84 27.5063 142.385 28.4512 142.633C29.3962 142.881 30.3792 142.821 31.276 142.46C32.1727 142.099 32.9429 141.454 33.489 140.606C34.2201 139.47 34.4981 138.052 34.2621 136.663C34.026 135.274 33.2952 134.027 32.23 133.195Z" fill="white" stroke="#263238" stroke-linecap="round" stroke-linejoin="round"/>
<path d="M36.0129 130.082C37.8899 128.039 37.8425 124.679 35.9072 122.576C33.9718 120.474 30.8813 120.425 29.0043 122.468C27.1274 124.51 27.1748 127.87 29.1101 129.973C31.0455 132.075 34.136 132.124 36.0129 130.082Z" fill="white" stroke="#263238" stroke-linecap="round" stroke-linejoin="round"/>
<path d="M45.6207 116.404C45.0377 115.548 44.2395 114.892 43.3269 114.519C42.4144 114.146 41.4285 114.072 40.4942 114.307C39.5598 114.542 38.7188 115.076 38.0777 115.84C37.4366 116.604 37.0242 117.565 36.8926 118.6C36.761 119.636 36.9162 120.7 37.3385 121.657C37.7608 122.615 38.4312 123.423 39.2649 123.98C40.0987 124.537 41.0583 124.817 42.0223 124.785C42.9863 124.753 43.9115 124.41 44.6807 123.801C45.1918 123.397 45.6216 122.886 45.9455 122.295C46.2695 121.705 46.4812 121.047 46.5685 120.36C46.6558 119.673 46.6171 118.97 46.4544 118.291C46.2918 117.612 46.0084 116.971 45.6207 116.404Z" fill="white" stroke="#263238" stroke-linecap="round" stroke-linejoin="round"/>
<path d="M13.4294 127.413L19.5696 129.554L17.4554 137.398L11.3086 135.249C10.8304 135.084 10.3842 134.818 9.99564 134.467C9.60708 134.116 9.28381 133.687 9.04439 133.205C8.80497 132.723 8.65409 132.197 8.60046 131.657C8.54683 131.118 8.59148 130.575 8.73184 130.061C9.01544 129.023 9.66875 128.162 10.549 127.666C11.4292 127.17 12.4648 127.079 13.4294 127.413Z" fill="white" stroke="#263238" stroke-linecap="round" stroke-linejoin="round"/>
<path d="M52.755 125.571C55.3755 128.418 56.8791 132.247 56.9351 136.215C56.991 140.183 55.5947 143.967 53.0533 146.732C52.7339 147.08 52.4145 147.427 52.0747 147.711C50.1535 149.414 47.8237 150.498 45.3386 150.845C42.8535 151.192 40.3081 150.788 37.9792 149.678C35.6503 148.567 33.6269 146.793 32.1289 144.548C30.631 142.302 29.7158 139.672 29.4829 136.941C29.25 134.211 29.7082 131.486 30.8077 129.063C31.9073 126.639 33.6061 124.609 35.7196 123.194C37.833 121.779 40.2803 121.033 42.7953 121.036C45.3103 121.04 47.7968 121.793 49.9847 123.214C50.9903 123.876 51.9208 124.668 52.755 125.571Z" fill="white" stroke="#263238" stroke-linecap="round" stroke-linejoin="round"/>
<path d="M52.755 125.571C55.3755 128.418 56.8791 132.247 56.935 136.215C56.991 140.183 55.5947 143.967 53.0533 146.732C52.7339 147.08 52.4145 147.427 52.0747 147.711C50.2457 146.522 48.6792 144.901 47.4956 142.973C46.312 141.045 45.5428 138.86 45.2471 136.587C44.9514 134.314 45.137 132.013 45.7897 129.861C46.4424 127.709 47.5448 125.763 49.0122 124.172C49.3253 123.832 49.6511 123.477 49.9974 123.2C50.9993 123.867 51.9255 124.664 52.755 125.571Z" fill="white" stroke="#263238" stroke-linecap="round" stroke-linejoin="round"/>
<path d="M155.018 171.49C157.348 160.606 151.164 149.718 141.204 147.171C131.245 144.624 121.282 151.383 118.952 162.267C116.621 173.152 122.806 184.04 132.765 186.586C142.724 189.133 152.687 182.375 155.018 171.49Z" fill="white" stroke="#263238" stroke-linecap="round" stroke-linejoin="round"/>
<path d="M140.426 175.93C145.001 173.844 147.163 168.1 145.255 163.099C143.346 158.099 138.09 155.736 133.515 157.822C128.939 159.907 126.777 165.652 128.686 170.652C130.594 175.652 135.85 178.015 140.426 175.93Z" fill="#263238" stroke="#263238" stroke-linecap="round" stroke-linejoin="round"/>
<path d="M133.798 252.51H215.966L217.147 246.43C217.62 244.001 217.195 241.467 215.964 239.379C214.733 237.292 212.796 235.822 210.577 235.29C198.929 232.43 173.711 231.4 173.711 231.4C167.635 231.61 150.725 232.4 139.077 235.3C136.873 235.85 134.956 237.326 133.74 239.409C132.524 241.492 132.108 244.014 132.581 246.43L133.798 252.51Z" fill="white" stroke="#263238" stroke-linecap="round" stroke-linejoin="round"/>
<path d="M194.656 232.88C184.133 231.82 173.738 231.4 173.738 231.4C169.913 231.53 161.788 231.9 153.388 232.88C155.84 242.03 164.149 248.77 174.022 248.77C183.895 248.77 192.203 242 194.656 232.88Z" fill="#8CD1FD" stroke="#263238" stroke-linecap="round" stroke-linejoin="round"/>
<path d="M259.845 209.631L264.956 202.145L220.295 165.724L215.184 173.21L259.845 209.631Z" fill="#263238" stroke="#263238" stroke-linecap="round" stroke-linejoin="round"/>
<path d="M237.619 231.729L244.469 237.315L264.919 207.364L258.069 201.779L237.619 231.729Z" fill="#263238" stroke="#263238" stroke-linecap="round" stroke-linejoin="round"/>
<path d="M255.294 199.32C255.91 198.417 256.683 197.656 257.568 197.08C258.454 196.504 259.434 196.125 260.454 195.963C261.474 195.802 262.513 195.861 263.511 196.139C264.51 196.416 265.449 196.906 266.274 197.58L266.869 198.11C267.927 199.165 268.701 200.517 269.105 202.018C269.509 203.52 269.529 205.114 269.162 206.627C268.795 208.141 268.055 209.515 267.023 210.6C265.992 211.686 264.707 212.442 263.31 212.786C261.912 213.129 260.456 213.047 259.098 212.549C257.74 212.051 256.533 211.155 255.608 209.96C254.684 208.764 254.077 207.315 253.854 205.768C253.631 204.222 253.8 202.639 254.342 201.19C254.588 200.526 254.908 199.898 255.294 199.32Z" fill="white" stroke="#263238" stroke-linecap="round" stroke-linejoin="round"/>
<path d="M237.424 223.25C238.584 221.367 240.381 220.065 242.419 219.63C244.458 219.195 246.571 219.662 248.294 220.93C248.505 221.08 248.706 221.25 248.907 221.42C250.012 222.417 250.846 223.725 251.317 225.203C251.789 226.681 251.881 228.273 251.582 229.804C251.284 231.335 250.607 232.748 249.626 233.888C248.644 235.028 247.395 235.852 246.015 236.27C244.635 236.689 243.176 236.685 241.797 236.261C240.418 235.836 239.172 235.006 238.195 233.862C237.218 232.717 236.546 231.302 236.254 229.769C235.961 228.237 236.059 226.646 236.536 225.17C236.758 224.492 237.056 223.847 237.424 223.25Z" fill="white" stroke="#263238" stroke-linecap="round" stroke-linejoin="round"/>
<path d="M213.904 233.963L226.78 235.345L227.267 229.931L214.391 228.549L213.904 233.963Z" fill="#263238" stroke="#263238" stroke-linecap="round" stroke-linejoin="round"/>
<path d="M213.121 227L219.471 227.68L218.73 235.9L212.38 235.22C211.382 235.114 210.464 234.579 209.828 233.733C209.191 232.887 208.888 231.8 208.985 230.71C209.084 229.619 209.576 228.616 210.351 227.921C211.126 227.225 212.122 226.894 213.121 227Z" fill="white" stroke="#263238" stroke-linecap="round" stroke-linejoin="round"/>
<path d="M225.84 230.5C226.845 228.862 228.137 227.457 229.64 226.365C231.143 225.273 232.829 224.516 234.6 224.137C236.371 223.759 238.193 223.765 239.962 224.157C241.731 224.548 243.412 225.318 244.909 226.42C245.284 226.7 245.641 226.99 245.988 227.3C247.923 229.047 249.382 231.341 250.207 233.931C251.032 236.521 251.192 239.309 250.669 241.991C250.145 244.673 248.959 247.148 247.239 249.145C245.518 251.142 243.33 252.585 240.912 253.318C238.493 254.05 235.937 254.044 233.522 253.3C231.106 252.556 228.924 251.103 227.211 249.098C225.499 247.093 224.322 244.613 223.809 241.928C223.297 239.243 223.467 236.456 224.302 233.87C224.681 232.68 225.198 231.547 225.84 230.5Z" fill="white" stroke="#263238" stroke-linecap="round" stroke-linejoin="round"/>
<path d="M211.053 246.08L228.072 232.17L230.808 236.16L213.789 250.06L211.053 246.08Z" fill="#263238" stroke="#263238" stroke-linecap="round" stroke-linejoin="round"/>
<path d="M209.287 245.87L213.963 242L218.117 248L213.441 251.83C212.707 252.43 211.785 252.688 210.877 252.545C209.969 252.403 209.15 251.872 208.601 251.07C208.073 250.276 207.85 249.289 207.978 248.318C208.107 247.347 208.576 246.469 209.287 245.87Z" fill="white" stroke="#263238" stroke-linecap="round" stroke-linejoin="round"/>
<path d="M233.032 236.46C233.248 235.433 233.18 234.359 232.837 233.374C232.494 232.389 231.891 231.538 231.105 230.928C230.318 230.318 229.384 229.978 228.42 229.949C227.456 229.92 226.506 230.205 225.69 230.768C224.875 231.33 224.23 232.144 223.839 233.107C223.447 234.071 223.327 235.139 223.492 236.177C223.657 237.216 224.1 238.177 224.766 238.939C225.431 239.702 226.289 240.231 227.23 240.46C228.485 240.765 229.798 240.516 230.885 239.766C231.972 239.017 232.744 237.829 233.032 236.46Z" fill="white" stroke="#263238" stroke-linecap="round" stroke-linejoin="round"/>
<path d="M242.054 260.06L244.579 240.98L248.322 241.56L245.805 260.64L242.054 260.06Z" fill="#263238" stroke="#263238" stroke-linecap="round" stroke-linejoin="round"/>
<path d="M240.91 261.07L241.596 255.82L247.279 256.71L246.592 261.95C246.54 262.358 246.414 262.752 246.222 263.107C246.03 263.462 245.776 263.773 245.474 264.021C245.173 264.269 244.829 264.449 244.464 264.552C244.098 264.655 243.718 264.678 243.344 264.62C242.591 264.501 241.912 264.061 241.455 263.395C240.999 262.73 240.803 261.893 240.91 261.07Z" fill="white" stroke="#263238" stroke-linecap="round" stroke-linejoin="round"/>
<path d="M249.786 240.31C249.355 239.576 248.735 238.999 248.004 238.65C247.273 238.301 246.464 238.197 245.679 238.351C244.893 238.505 244.168 238.909 243.593 239.513C243.018 240.117 242.62 240.894 242.448 241.746C242.277 242.597 242.341 243.485 242.631 244.297C242.921 245.109 243.425 245.808 244.079 246.307C244.733 246.807 245.508 247.083 246.305 247.101C247.103 247.119 247.887 246.879 248.56 246.41C249.462 245.778 250.097 244.781 250.327 243.637C250.557 242.494 250.362 241.297 249.786 240.31Z" fill="white" stroke="#263238" stroke-linecap="round" stroke-linejoin="round"/>
<path d="M225.208 257.52L236.555 237.88L240.407 240.52L229.07 260.17L225.208 257.52Z" fill="#263238" stroke="#263238" stroke-linecap="round" stroke-linejoin="round"/>
<path d="M223.497 258L226.599 252.6L232.464 256.6L229.353 262.01C228.864 262.856 228.087 263.457 227.194 263.68C226.301 263.903 225.363 263.73 224.586 263.2C223.812 262.667 223.263 261.82 223.059 260.846C222.855 259.871 223.013 258.848 223.497 258Z" fill="white" stroke="#263238" stroke-linecap="round" stroke-linejoin="round"/>
<path d="M242.603 239.94C242.467 238.899 242.051 237.925 241.409 237.142C240.766 236.359 239.925 235.803 238.992 235.543C238.059 235.283 237.077 235.332 236.17 235.684C235.263 236.035 234.471 236.673 233.896 237.516C233.321 238.36 232.988 239.371 232.94 240.421C232.892 241.472 233.13 242.515 233.624 243.417C234.119 244.319 234.847 245.041 235.718 245.49C236.588 245.939 237.561 246.096 238.513 245.94C239.782 245.735 240.925 244.988 241.692 243.863C242.459 242.739 242.786 241.328 242.603 239.94Z" fill="white" stroke="#263238" stroke-linecap="round" stroke-linejoin="round"/>
<path d="M221.583 184.249C230.184 178.199 232.668 165.674 227.131 156.275C221.595 146.876 210.135 144.161 201.534 150.211C192.934 156.262 190.45 168.786 195.986 178.185C201.522 187.585 212.983 190.299 221.583 184.249Z" fill="white" stroke="#263238" stroke-linecap="round" stroke-linejoin="round"/>
<path d="M219.725 171.327C221.792 166.403 219.815 160.58 215.309 158.321C210.803 156.062 205.474 158.223 203.407 163.148C201.34 168.072 203.318 173.895 207.824 176.154C212.33 178.413 217.658 176.252 219.725 171.327Z" fill="#263238" stroke="#263238" stroke-linecap="round" stroke-linejoin="round"/>
<path d="M174.013 127.12C190.442 127.12 203.76 112.565 203.76 94.61C203.76 76.6552 190.442 62.1 174.013 62.1C157.584 62.1 144.265 76.6552 144.265 94.61C144.265 112.565 157.584 127.12 174.013 127.12Z" fill="#8CD1FD" stroke="#263238" stroke-linecap="round" stroke-linejoin="round"/>
<path d="M216.543 116.26C222.931 107.507 226.93 96.9605 228.077 85.8343C229.225 74.7081 227.476 63.4538 223.031 53.3657C218.586 43.2776 211.626 34.7654 202.952 28.8082C194.277 22.851 184.24 19.6907 173.994 19.6907C163.749 19.6907 153.712 22.851 145.037 28.8082C136.363 34.7654 129.403 43.2776 124.958 53.3657C120.513 63.4538 118.764 74.7081 119.912 85.8343C121.059 96.9605 125.057 107.507 131.446 116.26H216.543Z" fill="white" stroke="#263238" stroke-linecap="round" stroke-linejoin="round"/>
<path d="M207.301 56.72H139.352C135.218 56.72 131.867 60.3823 131.867 64.9V91.22C131.867 95.7377 135.218 99.4 139.352 99.4H207.301C211.435 99.4 214.786 95.7377 214.786 91.22V64.9C214.786 60.3823 211.435 56.72 207.301 56.72Z" fill="#8CD1FD" stroke="#263238" stroke-linecap="round" stroke-linejoin="round"/>
<path d="M140.834 76.33C141.733 73.5802 143.371 71.1913 145.533 69.4763C147.695 67.7613 150.281 66.8003 152.952 66.7193C155.623 66.6382 158.254 67.4408 160.5 69.022C162.746 70.6031 164.503 72.889 165.54 75.58" stroke="#263238" stroke-width="5" stroke-linecap="round" stroke-linejoin="round"/>
<path d="M181.818 76.33C182.717 73.5802 184.354 71.1913 186.517 69.4763C188.679 67.7613 191.265 66.8003 193.936 66.7193C196.607 66.6382 199.238 67.4408 201.484 69.022C203.73 70.6031 205.487 72.889 206.524 75.58" stroke="#263238" stroke-width="5" stroke-linecap="round" stroke-linejoin="round"/>
<path d="M166.839 86.22C167.069 88.203 167.953 90.0264 169.325 91.3481C170.697 92.6697 172.463 93.399 174.292 93.399C176.121 93.399 177.887 92.6697 179.259 91.3481C180.631 90.0264 181.515 88.203 181.745 86.22H166.839Z" fill="white" stroke="#263238" stroke-linecap="round" stroke-linejoin="round"/>
<path d="M244.433 89.6C242.923 89.6 241.476 88.9447 240.408 87.7782C239.341 86.6117 238.741 85.0297 238.741 83.38V69.23C238.74 68.4124 238.887 67.6025 239.172 66.8467C239.457 66.0909 239.877 65.404 240.405 64.8253C240.934 64.2467 241.562 63.7877 242.253 63.4744C242.944 63.1612 243.685 63 244.433 63C245.181 62.9987 245.922 63.1586 246.614 63.4706C247.305 63.7826 247.934 64.2406 248.463 64.8183C248.993 65.396 249.413 66.0821 249.699 66.8374C249.986 67.5927 250.133 68.4024 250.133 69.22V83.37C250.135 84.1885 249.988 84.9992 249.702 85.7557C249.416 86.5122 248.996 87.1994 248.466 87.7782C247.937 88.357 247.308 88.8159 246.616 89.1285C245.924 89.4411 245.182 89.6013 244.433 89.6Z" fill="#263238" stroke="#263238" stroke-linecap="round" stroke-linejoin="round"/>
<path d="M102.037 89.6C101.289 89.6013 100.548 89.4414 99.8564 89.1294C99.1649 88.8174 98.5364 88.3595 98.0069 87.7818C97.4774 87.204 97.0574 86.5179 96.7708 85.7626C96.4842 85.0073 96.3367 84.1977 96.3367 83.38V69.23C96.3355 68.4115 96.4821 67.6008 96.7682 66.8444C97.0542 66.0879 97.4741 65.4006 98.0036 64.8218C98.5332 64.243 99.1621 63.7842 99.8543 63.4716C100.546 63.159 101.288 62.9987 102.037 63C102.785 63 103.525 63.1609 104.215 63.4735C104.906 63.7861 105.533 64.2443 106.062 64.8218C106.59 65.3994 107.009 66.0851 107.295 66.8397C107.581 67.5944 107.729 68.4032 107.729 69.22V83.37C107.73 84.1877 107.584 84.9976 107.298 85.7534C107.013 86.5092 106.594 87.196 106.065 87.7747C105.536 88.3533 104.909 88.8124 104.217 89.1256C103.526 89.4388 102.785 89.6 102.037 89.6Z" fill="#263238" stroke="#263238" stroke-linecap="round" stroke-linejoin="round"/>
<path d="M120.283 25.75C115.248 33.8794 112.564 43.4739 112.578 53.29V63.57" stroke="#263238" stroke-width="14" stroke-linecap="round" stroke-linejoin="round"/>
<path d="M228.328 25.79C224.209 19.0819 218.641 13.5852 212.118 9.78502C205.594 5.98485 198.315 3.99806 190.922 4.00001H157.661C150.279 3.9944 143.009 5.97245 136.491 9.76001C129.973 13.5476 124.407 19.0284 120.283 25.72" stroke="#263238" stroke-width="7" stroke-linecap="round" stroke-linejoin="round"/>
<path d="M235.996 63.57V53.29C236.01 43.4922 233.34 33.9142 228.328 25.79" stroke="#263238" stroke-width="14" stroke-linecap="round" stroke-linejoin="round"/>
<path d="M117.117 52.5H109.486C105.069 52.5 101.488 56.4131 101.488 61.24V90.13C101.488 94.957 105.069 98.87 109.486 98.87H117.117C121.534 98.87 125.114 94.957 125.114 90.13V61.24C125.114 56.4131 121.534 52.5 117.117 52.5Z" fill="white" stroke="#263238" stroke-linecap="round" stroke-linejoin="round"/>
<path d="M114.509 52.5H112.102V98.87H114.509V52.5Z" fill="#8CD1FD" stroke="#263238" stroke-linecap="round" stroke-linejoin="round"/>
<path d="M237.643 52.5H230.012C225.595 52.5 222.015 56.4131 222.015 61.24V90.13C222.015 94.957 225.595 98.87 230.012 98.87H237.643C242.06 98.87 245.641 94.957 245.641 90.13V61.24C245.641 56.4131 242.06 52.5 237.643 52.5Z" fill="white" stroke="#263238" stroke-linecap="round" stroke-linejoin="round"/>
<path d="M235.036 52.5H232.629V98.87H235.036V52.5Z" fill="#8CD1FD" stroke="#263238" stroke-linecap="round" stroke-linejoin="round"/>
<path d="M174.205 48.29C178.373 48.2911 182.475 47.1514 186.137 44.975C189.799 42.7985 192.904 39.6546 195.168 35.83L200.329 27.1C192.151 22.1644 182.948 19.6132 173.607 19.692C164.265 19.7708 155.099 22.477 146.992 27.55L154.761 38.09C157.098 41.2708 160.058 43.8383 163.423 45.6036C166.788 47.3688 170.472 48.2868 174.205 48.29Z" fill="#8CD1FD" stroke="#263238" stroke-linecap="round" stroke-linejoin="round"/>
<path d="M175.495 103.72C175.495 103.522 175.441 103.329 175.341 103.164C175.24 103 175.097 102.872 174.93 102.796C174.763 102.72 174.579 102.701 174.402 102.739C174.224 102.778 174.061 102.873 173.933 103.013C173.805 103.153 173.718 103.331 173.683 103.525C173.647 103.719 173.665 103.92 173.735 104.103C173.804 104.285 173.921 104.442 174.072 104.551C174.222 104.661 174.399 104.72 174.58 104.72C174.823 104.72 175.055 104.615 175.227 104.427C175.399 104.24 175.495 103.985 175.495 103.72Z" fill="#263238"/>
<path d="M175.495 107.08C175.495 106.882 175.441 106.689 175.341 106.524C175.24 106.36 175.097 106.232 174.93 106.156C174.763 106.08 174.579 106.061 174.402 106.099C174.224 106.138 174.061 106.233 173.933 106.373C173.805 106.513 173.718 106.691 173.683 106.885C173.647 107.079 173.665 107.28 173.735 107.463C173.804 107.645 173.921 107.802 174.072 107.911C174.222 108.021 174.399 108.08 174.58 108.08C174.823 108.08 175.055 107.975 175.227 107.787C175.399 107.6 175.495 107.345 175.495 107.08Z" fill="#263238"/>
<path d="M172.009 106.56C172.176 106.442 172.303 106.268 172.372 106.064C172.44 105.86 172.446 105.637 172.388 105.429C172.33 105.221 172.212 105.039 172.051 104.911C171.89 104.783 171.695 104.716 171.497 104.72C171.329 104.838 171.202 105.012 171.134 105.216C171.065 105.42 171.059 105.643 171.117 105.851C171.175 106.059 171.294 106.241 171.455 106.369C171.615 106.497 171.81 106.564 172.009 106.56Z" fill="#263238"/>
<path d="M177.508 106.56C177.65 106.557 177.789 106.519 177.914 106.447C178.04 106.376 178.149 106.274 178.232 106.148C178.315 106.023 178.371 105.879 178.394 105.726C178.418 105.573 178.409 105.417 178.367 105.269C178.326 105.121 178.254 104.985 178.157 104.873C178.059 104.761 177.94 104.674 177.807 104.621C177.674 104.568 177.531 104.549 177.391 104.566C177.25 104.583 177.115 104.636 176.996 104.72C176.854 104.723 176.715 104.761 176.59 104.833C176.464 104.904 176.355 105.006 176.272 105.132C176.189 105.257 176.133 105.401 176.11 105.554C176.086 105.707 176.095 105.863 176.137 106.011C176.178 106.159 176.25 106.295 176.347 106.407C176.444 106.519 176.564 106.606 176.697 106.659C176.83 106.712 176.973 106.731 177.113 106.714C177.254 106.697 177.389 106.644 177.508 106.56Z" fill="#263238"/>
<path d="M210.577 141.24C198.929 138.37 173.711 137.34 173.711 137.34C167.635 137.55 150.726 138.34 139.077 141.25C136.872 141.798 134.953 143.273 133.737 145.357C132.521 147.44 132.105 149.964 132.581 152.38L143.369 207.54C143.899 210.215 145.249 212.611 147.197 214.331C149.144 216.052 151.571 216.994 154.075 217H195.662C198.166 216.994 200.593 216.052 202.54 214.331C204.487 212.611 205.838 210.215 206.368 207.54L217.147 152.38C217.62 149.951 217.195 147.417 215.964 145.329C214.733 143.242 212.797 141.772 210.577 141.24Z" fill="white" stroke="#263238" stroke-linecap="round" stroke-linejoin="round"/>
<path d="M205.27 140.18C192.633 138.12 173.738 137.34 173.738 137.34C164.487 137.63 155.256 138.464 146.086 139.84L158.311 217H191.535L205.27 140.18Z" fill="#8CD1FD" stroke="#263238" stroke-linecap="round" stroke-linejoin="round"/>
<path d="M184.645 154.11H164.405C160.271 154.11 156.92 157.772 156.92 162.29V173.09C156.92 177.608 160.271 181.27 164.405 181.27H184.645C188.779 181.27 192.13 177.608 192.13 173.09V162.29C192.13 157.772 188.779 154.11 184.645 154.11Z" fill="white" stroke="#263238" stroke-linecap="round" stroke-linejoin="round"/>
<path d="M168.614 165.3H162.914V171.53H168.614V165.3Z" fill="white" stroke="#263238" stroke-linecap="round" stroke-linejoin="round"/>
<path d="M177.371 165.3H171.67V171.53H177.371V165.3Z" fill="white" stroke="#263238" stroke-linecap="round" stroke-linejoin="round"/>
<path d="M186.137 165.3H180.436V171.53H186.137V165.3Z" fill="white" stroke="#263238" stroke-linecap="round" stroke-linejoin="round"/>
</svg>
